<?xml version="1.0" standalone="no"?>
<!DOCTYPE svg PUBLIC "-//W3C//DTD SVG 20010904//EN"
 "http://www.w3.org/TR/2001/REC-SVG-20010904/DTD/svg10.dtd">
<svg version="1.0" xmlns="http://www.w3.org/2000/svg"
 width="444.000000pt" height="444.000000pt" viewBox="0 0 444.000000 444.000000"
 preserveAspectRatio="xMidYMid meet">
<metadata>
Created by potrace 1.11, written by Peter Selinger 2001-2013
</metadata>
<g transform="translate(0.000000,444.000000) scale(0.100000,-0.100000)"
fill="#000000" stroke="none">
<path d="M960 4350 c-11 -11 -20 -28 -21 -37 0 -10 -2 -25 -4 -33 -1 -8 -6
-46 -10 -85 -3 -38 -8 -83 -10 -100 -2 -16 -7 -86 -10 -155 -7 -134 -15 -170
-16 -74 0 32 -2 97 -5 144 -12 238 -16 253 -74 268 -39 10 -65 2 -86 -27 -8
-10 -11 -92 -10 -257 0 -133 -2 -238 -5 -233 -3 5 -7 35 -8 67 -5 122 -19 186
-46 210 -14 12 -35 22 -45 22 -32 0 -70 -22 -76 -45 -5 -20 1 -191 11 -310 3
-33 7 -87 10 -120 20 -259 49 -368 116 -436 l31 -31 -30 -18 c-36 -22 -46 -46
-58 -140 -3 -25 -12 -49 -19 -55 -7 -5 -23 -17 -34 -25 -21 -14 -62 -74 -65
-95 -1 -5 -5 -16 -9 -22 -5 -7 -6 -13 -3 -13 3 0 1 -11 -4 -26 -6 -14 -12 -43
-15 -66 -3 -22 -7 -43 -9 -47 -2 -3 -7 -24 -10 -45 -4 -21 -9 -48 -12 -60 -2
-12 -6 -37 -9 -56 -2 -19 -6 -51 -10 -71 -7 -41 -12 -87 -20 -179 -3 -36 -8
-78 -11 -95 -9 -54 -12 -538 -4 -610 5 -38 11 -91 14 -116 17 -149 70 -326
141 -476 42 -89 100 -185 117 -191 4 -2 8 -8 8 -13 0 -12 29 -45 143 -163 113
-115 163 -185 197 -271 23 -58 58 -105 80 -105 5 0 10 -5 10 -11 0 -5 4 -7 10
-4 5 3 10 1 10 -4 0 -6 3 -10 7 -9 5 1 17 -3 28 -9 11 -6 25 -12 30 -12 6 -1
26 -6 45 -11 58 -15 101 -20 190 -25 139 -7 263 -16 290 -19 23 -4 70 -10 160
-21 33 -4 108 -10 240 -20 67 -5 625 -5 695 0 28 2 102 6 165 10 63 3 126 8
140 10 14 2 57 7 95 10 39 4 113 13 165 21 52 9 111 18 130 20 69 9 200 44
244 65 61 28 62 45 14 152 -17 37 -34 67 -39 67 -4 0 -10 8 -13 18 -8 23 -117
137 -181 187 -27 22 -59 48 -69 58 -11 9 -26 17 -33 17 -7 0 -13 5 -13 10 0 6
-7 10 -15 10 -8 0 -15 3 -15 8 0 4 -10 12 -23 18 -12 6 -48 25 -79 42 -32 16
-58 28 -58 25 0 -4 -9 2 -20 12 -11 10 -20 15 -20 11 0 -4 -15 2 -33 13 -19
11 -37 18 -40 14 -4 -3 -7 -1 -7 5 0 7 -3 11 -7 10 -8 -1 -44 12 -98 37 -37
17 -147 59 -157 60 -4 0 -20 11 -36 25 l-29 25 60 42 c110 77 121 87 202 168
78 78 145 163 145 184 0 6 5 11 11 11 5 0 7 5 4 10 -3 6 -2 10 3 10 5 0 13 10
17 23 4 12 8 24 9 27 1 3 10 22 20 42 9 20 18 42 20 50 1 7 5 19 9 26 5 6 6
12 2 12 -3 0 -1 9 5 20 9 17 14 18 32 9 16 -9 26 -7 46 8 23 18 68 83 57 83
-2 0 0 11 5 25 10 26 16 55 26 115 3 19 7 41 10 48 7 23 17 114 17 157 0 88
-4 105 -29 134 -21 26 -29 29 -50 21 -23 -9 -24 -7 -24 25 0 19 -4 35 -8 35
-5 0 -8 98 -8 218 2 304 -17 439 -78 560 -16 33 -25 73 -30 134 l-7 86 31 7
c17 4 37 13 45 21 13 13 13 19 0 42 -27 51 -177 192 -204 192 -6 0 -11 3 -11
8 0 7 -14 14 -94 46 -36 15 -126 38 -194 51 -15 3 -38 7 -52 10 -14 3 -45 7
-69 10 -54 6 -57 9 -43 40 23 50 14 58 -93 81 -94 21 -224 1 -343 -50 -31 -14
-82 -27 -112 -31 -30 -3 -73 -10 -95 -16 -54 -14 -175 -70 -175 -80 0 -5 -6
-9 -14 -9 -8 0 -47 -31 -87 -70 -74 -72 -99 -87 -78 -47 7 12 12 23 11 25 -1
1 -8 15 -16 30 -30 58 -79 79 -131 58 -29 -13 -54 -37 -100 -100 -46 -62 -83
-66 -119 -12 -36 55 -57 193 -41 266 3 14 8 39 11 55 2 17 9 46 14 65 10 40
20 85 25 117 2 11 6 29 9 40 5 16 16 88 21 138 3 24 -12 55 -34 72 -24 18 -76
16 -93 -4 -13 -16 -42 -106 -54 -167 -4 -20 -6 -30 -19 -88 -3 -13 -8 -36 -11
-53 -3 -16 -7 -34 -8 -40 -2 -5 -6 -31 -11 -57 -13 -85 -24 -51 -19 65 2 61 6
130 8 152 3 30 14 179 18 245 5 80 -89 133 -142 80z m555 -1042 c-4 -18 -16
-45 -26 -60 -11 -14 -19 -30 -19 -36 0 -5 -7 -15 -15 -22 -8 -7 -13 -16 -10
-20 2 -4 -2 -16 -10 -26 -8 -10 -15 -26 -15 -34 0 -8 -7 -28 -15 -44 -9 -16
-17 -37 -18 -45 -1 -9 -5 -20 -9 -26 -6 -10 -27 -83 -34 -120 -13 -70 -16
-128 -16 -357 0 -146 -4 -258 -9 -258 -5 0 -9 -14 -9 -31 0 -23 -4 -30 -17
-28 -34 5 -61 -12 -77 -49 l-16 -37 5 80 c3 44 8 96 10 115 2 19 6 64 9 100
32 333 30 358 -27 414 -17 16 -22 34 -24 79 -2 70 -17 111 -45 124 -18 8 -13
13 43 41 86 42 222 143 289 214 30 32 56 58 58 58 2 0 0 -15 -3 -32z m-311
-1303 c7 -93 47 -279 72 -330 25 -54 57 -75 99 -65 29 7 35 5 35 -9 0 -42 106
-249 164 -321 50 -61 209 -210 224 -210 6 0 15 -6 19 -12 10 -16 100 -78 113
-78 6 0 10 -4 10 -9 0 -13 -161 -4 -177 9 -2 2 -7 4 -13 5 -5 1 -12 4 -15 5
-3 1 -8 3 -12 4 -14 3 -108 51 -113 58 -3 4 -17 12 -30 18 -14 5 -38 19 -55
30 -16 11 -37 23 -45 27 -113 56 -278 283 -305 420 -10 53 -5 288 11 443 1 14
2 43 3 64 2 61 9 39 15 -49z"/>
</g>
</svg>
